<?xml version="1.0" encoding="utf-8"?>
<!-- Generator: Adobe Illustrator 27.0.0, SVG Export Plug-In . SVG Version: 6.00 Build 0)  -->
<svg version="1.1" id="Capa_1" xmlns="http://www.w3.org/2000/svg" xmlns:xlink="http://www.w3.org/1999/xlink" x="0px" y="0px"
	 viewBox="0 0 384.2 164.28" style="enable-background:new 0 0 384.2 164.28;" xml:space="preserve">
<style type="text/css">
	.st0{opacity:0.1;}
	.st1{fill:#0848AF;}
	.st2{fill:url(#SVGID_1_);}
	.st3{fill:#1A2646;}
	.st4{fill:#FFFFFF;}
	.st5{fill:url(#SVGID_00000048476679971530405410000017664595115789978806_);}
	.st6{fill:url(#SVGID_00000173137699465351749350000010975631219952011957_);}
	.st7{fill:#F5F5F5;}
	.st8{fill:#3430C5;}
	
		.st9{clip-path:url(#SVGID_00000101101654348430437520000008618544942770732721_);fill:url(#SVGID_00000149379417278720032600000011787607198156690617_);}
	.st10{fill:#0E45CC;}
	.st11{fill:#E21414;}
	.st12{fill:url(#SVGID_00000058561420515793254150000011257363260297340841_);}
	
		.st13{opacity:0.39;fill:none;stroke:url(#SVGID_00000125570810556468349870000001147245403046638506_);stroke-width:0.75;stroke-miterlimit:10;}
	
		.st14{opacity:0.39;fill:none;stroke:url(#SVGID_00000054981165258745991360000011793031555798959294_);stroke-width:4;stroke-miterlimit:10;}
	.st15{fill:#0CF25D;}
	.st16{fill:#011F26;}
	.st17{fill:url(#SVGID_00000183245960123310183340000007834545322050218171_);}
	.st18{fill:url(#SVGID_00000054227712163505462790000012780199492401352112_);}
	.st19{fill:#3687F0;}
	.st20{fill:#1F2537;}
	.st21{fill:#2082BA;}
	.st22{fill:#0067ED;}
	.st23{fill:none;stroke:#1F2537;stroke-miterlimit:10;}
	.st24{fill:#4C3737;}
	.st25{fill:#606060;}
	.st26{fill:#0453AA;}
	.st27{fill:#032F51;}
	.st28{fill:#04457F;}
	.st29{fill:url(#SVGID_00000058568899433134919590000015803969630546456507_);}
	.st30{fill:url(#SVGID_00000005268922436043971460000000984157289716753804_);}
	.st31{fill:none;stroke:#B0E800;stroke-width:10;stroke-miterlimit:10;}
	.st32{fill:none;stroke:url(#SVGID_00000062171092770399920710000001417403250632267688_);stroke-width:12;stroke-miterlimit:10;}
	.st33{fill:#673EC4;}
	.st34{fill:#0022EA;}
	.st35{fill:#00187F;}
	.st36{fill:url(#SVGID_00000031911461745588321460000011883579831166144191_);}
	.st37{fill:url(#SVGID_00000003816603285703044790000012204948853845603004_);}
	.st38{fill:url(#SVGID_00000182526375397921675200000016418516715913776830_);}
	.st39{fill:url(#SVGID_00000150787065300310347260000010489190783260984197_);}
	.st40{fill:#D1D1D1;}
	.st41{fill:url(#SVGID_00000178897361425831570040000011136996147191693717_);}
	.st42{fill:url(#SVGID_00000020367620983211178760000010413587621950719893_);}
	.st43{fill:url(#SVGID_00000017489541080744377470000012409169284046331568_);}
	.st44{fill:url(#SVGID_00000070082758910414725980000012080065894646135453_);}
	.st45{fill:url(#SVGID_00000162353249209081730970000002546825106323184773_);}
	.st46{fill:url(#SVGID_00000155860668723720490030000010162307379252812972_);}
	.st47{fill:url(#SVGID_00000157277479998296567680000012735771859901018283_);}
	.st48{fill:url(#SVGID_00000156553729331933493120000000795403299346051229_);}
	.st49{fill:#CCCCCC;}
	.st50{fill:none;stroke:url(#SVGID_00000145020906642690306750000004433737815455544993_);stroke-width:3;stroke-miterlimit:10;}
	.st51{fill:none;stroke:url(#SVGID_00000061458996405887808580000010885792138219459259_);stroke-width:3;stroke-miterlimit:10;}
	.st52{fill:none;stroke:url(#SVGID_00000171684355114985786760000002274101279143963833_);stroke-width:3;stroke-miterlimit:10;}
	.st53{fill:#131311;}
	.st54{clip-path:url(#SVGID_00000102536228797005793230000018152453091346980008_);}
	.st55{fill:none;stroke:#1D1D1B;stroke-width:0.5;stroke-miterlimit:10;}
	.st56{fill:#1D1D1B;}
	.st57{fill:#909090;}
	.st58{fill:#676B6E;}
	.st59{fill:#8D949C;}
	.st60{fill:#A3A7A6;}
	.st61{fill:#8B9499;}
	.st62{fill:#212E4F;}
	
		.st63{clip-path:url(#SVGID_00000124151218914754942410000001898257722200936321_);fill:url(#SVGID_00000150090458949518132810000004352199552943669406_);}
	.st64{opacity:0.39;fill:url(#SVGID_00000029036078649206610070000017391323355280898484_);}
	
		.st65{clip-path:url(#SVGID_00000028287231074292808000000005176616066188308409_);fill:url(#SVGID_00000018198480063198289940000009627951838787224225_);}
	.st66{fill:url(#SVGID_00000032608731815606280320000015654212783706705551_);}
	.st67{fill:url(#SVGID_00000131330974780832141470000005204125295051619233_);}
	.st68{fill:url(#SVGID_00000110436404736928168610000009685239822732805005_);}
	.st69{fill:url(#SVGID_00000014595229780349850970000015936718527383290262_);}
	.st70{fill:url(#SVGID_00000021091158540501021120000016703563342953961894_);}
	.st71{fill:url(#SVGID_00000165227369746320897740000005030750008907313816_);}
	.st72{fill:url(#SVGID_00000083770096754303180580000001400166974179006347_);}
	.st73{fill:url(#SVGID_00000106109780574796423810000009886070292008642990_);}
	.st74{fill:none;stroke:url(#SVGID_00000008130972635606454590000011567059018035316379_);stroke-width:3;stroke-miterlimit:10;}
	.st75{fill:none;stroke:url(#SVGID_00000012437565666740764190000004890837978700976294_);stroke-width:3;stroke-miterlimit:10;}
	.st76{fill:none;stroke:url(#SVGID_00000071542054571514347510000017416068754988376235_);stroke-width:3;stroke-miterlimit:10;}
	.st77{fill:url(#SVGID_00000063630196658216858980000012428762197085852047_);}
	.st78{fill:url(#SVGID_00000137111413737788804440000006140420722136129202_);}
	.st79{fill:url(#SVGID_00000034794691546057454690000008738268779082601651_);}
	.st80{fill:url(#SVGID_00000020378904513256731950000017005497674214501298_);}
	.st81{fill:none;stroke:#212121;stroke-miterlimit:10;}
	.st82{fill:url(#SVGID_00000036237189188036634020000015105034009888985260_);}
	.st83{filter:url(#Adobe_OpacityMaskFilter);}
	.st84{fill:url(#SVGID_00000078019677363843307040000005185833764636053916_);}
	.st85{mask:url(#SVGID_00000150096436776208637200000006490582780439496839_);fill:#0848AF;}
	.st86{filter:url(#Adobe_OpacityMaskFilter_00000066491041470131375020000000248750950175443343_);}
	.st87{fill:url(#SVGID_00000102525142318544033530000017235936204913389700_);}
	.st88{mask:url(#SVGID_00000042013394968620682210000004609111344984204469_);fill:#0848AF;}
	.st89{filter:url(#Adobe_OpacityMaskFilter_00000094608643997585815230000007057025722135960206_);}
	.st90{fill:url(#SVGID_00000029736188793648538180000010119769386770710715_);}
	.st91{mask:url(#SVGID_00000089563271374166850580000000543333584865408437_);fill:#0848AF;}
	.st92{fill:url(#SVGID_00000036210635555383812870000007753457260885627809_);}
	.st93{filter:url(#Adobe_OpacityMaskFilter_00000029729089908904825090000008572368023120865927_);}
	.st94{fill:url(#SVGID_00000051358472525050774310000017557042215178439095_);}
	.st95{mask:url(#SVGID_00000062907619074100232530000003761912007327098028_);fill:#0848AF;}
	.st96{fill:#ED2A4C;}
	.st97{fill:url(#SVGID_00000084497496137658928590000006831187505677472435_);}
	.st98{fill:none;stroke:#575756;stroke-width:0.25;stroke-miterlimit:10;}
	.st99{fill:url(#SVGID_00000101808132148506385570000014331228553641155462_);}
	.st100{fill:none;stroke:#0848AF;stroke-miterlimit:10;}
	.st101{fill:#9B9B9B;}
	.st102{filter:url(#Adobe_OpacityMaskFilter_00000157281465918686907390000005055584633742782873_);}
	.st103{fill:url(#SVGID_00000067194683598618554770000013133810211197803945_);}
	.st104{mask:url(#SVGID_00000084523494626192886570000007699304902892359602_);fill:#0848AF;}
	.st105{fill:url(#SVGID_00000120542785841981299370000009052244798149495212_);}
	.st106{filter:url(#Adobe_OpacityMaskFilter_00000173865962349747160430000011898060701807968899_);}
	.st107{fill:url(#SVGID_00000162347990169869511640000017590589876597996212_);}
	.st108{mask:url(#SVGID_00000139991923524884400480000008669757310161217468_);fill:#0848AF;}
	.st109{filter:url(#Adobe_OpacityMaskFilter_00000081622747807630396010000001940873940347559083_);}
	.st110{fill:url(#SVGID_00000047755902962173196000000014761306991133693864_);}
	.st111{mask:url(#SVGID_00000152947914936744967190000000113274486046538885_);fill:#0848AF;}
	.st112{fill:url(#SVGID_00000023249672674151765030000018102193390187151765_);}
	.st113{filter:url(#Adobe_OpacityMaskFilter_00000155116738915810203360000012008972949894470293_);}
	.st114{fill:url(#SVGID_00000021798047828716266750000013903803833653242809_);}
	.st115{mask:url(#SVGID_00000098915267130594829240000013535557723757845420_);fill:#0848AF;}
	.st116{opacity:0.5;}
	.st117{fill:url(#SVGID_00000141438462319400365230000016385694975988112768_);}
	.st118{filter:url(#Adobe_OpacityMaskFilter_00000075146566982441642650000002898194656989232031_);}
	.st119{fill:url(#SVGID_00000109745037962092701440000008037464424440466859_);}
	.st120{mask:url(#SVGID_00000088100447722743748650000016350809294455726751_);fill:#0848AF;}
	.st121{fill:#FFFFFF;stroke:#1E1E1E;stroke-miterlimit:10;}
	.st122{fill:#686868;}
	.st123{fill:#C4C4C4;}
	.st124{filter:url(#Adobe_OpacityMaskFilter_00000065764072305531470250000011439193899637052861_);}
	.st125{fill:url(#SVGID_00000023987240759623193350000006812649149199370933_);}
	.st126{mask:url(#SVGID_00000160158511176335157640000010731235911200836529_);fill:#0848AF;}
	.st127{fill:url(#SVGID_00000114053338329718405580000010756304973012461232_);}
	.st128{filter:url(#Adobe_OpacityMaskFilter_00000180325187320302570410000002901813201906802363_);}
	.st129{fill:url(#SVGID_00000155845645534456657770000008851127785091687865_);}
	.st130{mask:url(#SVGID_00000169535420759423970590000017473372380447351188_);fill:#0848AF;}
	.st131{filter:url(#Adobe_OpacityMaskFilter_00000005268321125393465780000005957113079276702624_);}
	.st132{fill:url(#SVGID_00000177456203838082824730000007873415594219188415_);}
	.st133{mask:url(#SVGID_00000150782679056731192720000016323658201502360726_);fill:#0848AF;}
	.st134{fill:url(#SVGID_00000082350364330691243790000003914775981237978037_);}
	.st135{opacity:0.3;fill:url(#SVGID_00000005248668614311166290000004537836739026928824_);}
	.st136{fill:#1663BF;}
	.st137{fill:url(#SVGID_00000021119839877152984830000001479256321237384635_);}
	.st138{filter:url(#Adobe_OpacityMaskFilter_00000045582027307658511160000014529324768572201115_);}
	.st139{fill:url(#SVGID_00000041257547019409870640000011543987107144483502_);}
	.st140{mask:url(#SVGID_00000119800996929443507480000001864076261792878724_);fill:#0848AF;}
	.st141{fill:url(#SVGID_00000159429635295587707270000012133393389059191995_);}
	.st142{fill:url(#SVGID_00000156587665224916902750000002722333966480335764_);}
	.st143{filter:url(#Adobe_OpacityMaskFilter_00000124162664237833583770000003834642859622264732_);}
	.st144{fill:url(#SVGID_00000042706409094620807180000011245061019348877465_);}
	.st145{mask:url(#SVGID_00000149358470649747673830000012629189638750765720_);fill:#FFFFFF;}
	.st146{filter:url(#Adobe_OpacityMaskFilter_00000002382482408711604890000017044674686147803281_);}
	.st147{fill:url(#SVGID_00000143583997147592697560000009715550153654811779_);}
	.st148{mask:url(#SVGID_00000121993783532578159320000010978057447801386652_);fill:#FFFFFF;}
</style>
<g>
	<g>
		<path class="st62" d="M60.42,65.68C49,69.92,41.82,88.85,35.29,96.35s-18.6,20.56-25.13,19.91V36.13
			c0-17.57,14.24-31.81,31.82-31.81h21.72c0,0,11.42,12.72,12.4,29.37C77.07,50.34,71.84,61.43,60.42,65.68z"/>
		<path class="st20" d="M43.27,95.87c-0.02,0.03-0.05,0.07-0.07,0.11C43.22,95.96,43.24,95.92,43.27,95.87z"/>
		<path class="st20" d="M49.93,149.89H38.54c-0.14-0.03-0.29-0.06-0.43-0.08c-0.2-0.2-0.4-0.39-0.6-0.59
			c-0.17-0.17-0.34-0.34-0.48-0.54c-0.37-0.51-0.73-1.04-0.63-1.66c0.02-0.11,0.03-0.22,0.05-0.33c0.13,0.02,0.25,0.05,0.38,0.07
			c0.22-0.62,0.21-1.3,0.35-1.94c0.37-1.71,1.74-2.99,3.04-4.16c0.77-0.69,1.53-1.37,2.29-2.06c0.12-0.11,0.25-0.22,0.33-0.36
			c0.07-0.11,0.11-0.23,0.16-0.35c0.17-0.33,0.46-0.58,0.7-0.86c0.35-0.39,0.61-0.85,0.86-1.3c0.88-1.52,1.75-3.04,2.51-4.62
			c0.16-0.33,0.28-0.65,0.58-0.86c0.22,0.58,0.5,1.13,0.8,1.67c0.21,0.37,0.43,0.73,0.63,1.11c0.58,1.11,0.87,2.37,0.86,3.63
			c0,0.33,0.05,0.78,0.38,0.85c-0.32,0.42-0.09,1.02,0.08,1.53c0.44,1.31,0.43,2.78,0.7,4.14c0.28,1.43,0.59,2.86,1.04,4.24
			c0.1,0.3,0.2,0.61,0.15,0.92c-0.01,0.03-0.01,0.06,0,0.09c0.01,0.04,0.06,0.06,0.1,0.07c0.15,0.06,0.3,0.13,0.45,0.19
			c-0.24,0.29-0.5,0.66-0.37,1.03c0.01,0.03,0.02,0.06,0.04,0.09C51.66,149.86,50.8,149.89,49.93,149.89z"/>
		<path class="st20" d="M116.83,76.53c-1.26,2.74-9.87,21.53-10.81,22.77l-8.5,0.32l-6.53,0.25c-1.67,0.06-2.96,1.48-2.78,3.08
			l0.26,2.45c0.13,1.42,1.25,2.61,2.73,2.89l6.01,1.19l0.2,0.05c0,0.1,3.37,1.16,3.37,1.27c-0.16,1.22-0.37,2.43-0.65,3.61
			c-0.33,0.9-0.59,1.83-0.76,2.8c-5.22,16.58-21.84,28.86-40.4,31.93c-0.18-0.05-0.37-0.12-0.55-0.18c-0.5-0.17-1.05-0.39-1.3-0.85
			c-0.2-0.36-0.19-0.85-0.51-1.11c-0.22-0.19-0.66-0.18-0.96-0.2c0.06-0.59-0.25-1.15-0.46-1.71c-0.82-2.2-0.2-4.73-0.93-6.96
			c-0.07-0.21-0.14-0.41-0.13-0.63c0.01-0.14,0.06-0.28,0.1-0.43c0.05-0.19,0.08-0.39,0.12-0.59c0.1-0.62,0.2-1.28,0-1.88
			c-0.08-0.24-0.21-0.47-0.2-0.73c0.01-0.13,0.05-0.25,0.05-0.38c0.02-0.42-0.27-0.77-0.48-1.13c-0.85-1.45-0.85-3.08-1.05-4.75
			c-0.13-1.08-0.27-2.1-0.18-3.2c0.06-0.76,0.1-1.52,0.14-2.28c0.1,0.05,0.24,0.03,0.32-0.04c0.08-0.08,0.12-0.21,0.07-0.32
			c0.14,0,0.29,0.01,0.44,0.01c0.06-0.14,0.05-0.32-0.02-0.46c0.11,0.01,0.22,0.01,0.33,0.02c0.04,0,0.09,0,0.13-0.02
			c0.08-0.05,0.05-0.18,0.02-0.27c-0.11-0.26-0.31-0.48-0.42-0.75c1.1-0.09,2.11-0.13,3.19-0.35c-0.28-2.02-0.63-4.03-1.08-6.02
			c-0.12-0.54-0.25-1.07-0.24-1.62c0.01-0.43,0.17-0.88-0.06-1.24c-0.86,0.05-1.72,0.1-2.58,0.14c-0.13,0.01-0.25,0.02-0.37-0.03
			c-0.12-0.05-0.24-0.05-0.22-0.17c0.01,0.03,0.06,0.02,0.06-0.01c0.01-0.02-0.01-0.05-0.02-0.08c-0.27-0.5-0.14-1.12-0.36-1.65
			c-0.2-0.49-0.69-0.86-0.74-1.38c-0.02-0.21,0.03-0.42,0.01-0.63c-0.02-0.34-0.22-0.65-0.37-0.96c-0.04-0.09-0.08-0.18-0.08-0.28
			c0.01-0.1,0.06-0.2,0.16-0.22c-0.18-0.22-0.37-0.46-0.44-0.75c0.17-0.17,0.35-0.37,0.37-0.62c0-0.09-0.02-0.19,0.01-0.28
			c0.05-0.18,0.25-0.26,0.43-0.32c0.28-0.08,0.55-0.17,0.82-0.25c0.16-0.05,0.34-0.12,0.4-0.27c0.03-0.11,0-0.23-0.02-0.34
			c-0.02-0.12-0.02-0.25,0.07-0.32c0.06-0.05,0.02-0.13-0.07-0.12c0.02-0.08,0.08-0.15,0.16-0.19c-0.1-0.15-0.1-0.36,0-0.51
			c0.09-0.16,0.28-0.25,0.47-0.22c0.03-0.25-0.17-0.45-0.33-0.64c-0.25-0.29-0.41-0.66-0.47-1.05c0.13-0.02,0.2-0.17,0.19-0.3
			c-0.01-0.13-0.09-0.25-0.14-0.36c-0.11-0.22-0.17-0.46-0.23-0.7c-0.06-0.27-0.13-0.59,0.06-0.8c0.07-0.08,0.17-0.14,0.2-0.24
			c0.06-0.16-0.06-0.39,0.09-0.48c0.02-0.01,0.03-0.02,0.05-0.03c0.02-0.03,0.01-0.08,0-0.12c-0.12-0.25-0.39-0.39-0.66-0.44
			c-0.27-0.06-0.55-0.06-0.81-0.15c-0.24-0.08-0.45-0.22-0.7-0.28c-0.25-0.06-0.52-0.01-0.79-0.05c-0.18-0.03-0.37-0.09-0.56-0.1
			c-0.18-0.01-0.39,0.02-0.53,0.14c-0.06,0.05-0.05,0.13-0.13,0.17c-0.09,0.05-0.2,0.03-0.3,0.05c-0.1,0.02-0.18,0.07-0.27,0.12
			c-0.38,0.24-0.7,0.35-0.99,0.71c-0.21,0.27-0.43,0.54-0.6,0.83c-0.42,0.74-0.52,1.64-0.39,2.48c0.09,0.58,0.29,1.14,0.54,1.67
			c0.24,0.51,0.52,0.78,0.32,1.35c-0.03,0.1-0.07,0.21-0.11,0.32c-0.17,0.49-0.34,0.99-0.65,1.39c-0.09,0.12-0.2,0.23-0.3,0.34
			c-0.47,0.5-0.9,1.01-1.3,1.56c-0.27,0.36-0.54,0.74-0.71,1.15c-0.43,1.05-0.21,2.21-0.33,3.3c-0.11,1.06-0.65,2.18-1.11,3.13
			c-0.16,0.31-0.32,0.62-0.4,0.96c-0.08,0.34-0.06,0.72,0.13,1.01c0.09,0.13,0.2,0.22,0.29,0.35c0.29,0.43,0.07,0.77-0.09,1.18
			c-0.18,0.45-0.29,0.96-0.39,1.44c-0.24,1.2-0.22,2.46-0.43,3.67c-0.07,0.45-0.18,0.9-0.29,1.35c-0.14,0.58-0.28,1.15-0.42,1.72
			c0.86-0.06,1.68,0.01,2.53,0.16c-0.35,1.76-0.7,3.54-1.45,5.17c-0.18,0.4-0.39,0.8-0.59,1.18c-0.13,0.25-0.26,0.49-0.39,0.74
			c-0.09,0.17-0.18,0.35-0.32,0.48c-0.1,0.1-0.23,0.17-0.35,0.26c-0.36,0.28-0.59,0.69-0.84,1.07c-0.81,1.26-1.92,2.31-2.85,3.49
			c-1.53,1.92-2.57,4.17-3.6,6.39c-0.19,0.42-0.39,0.83-0.58,1.25c-0.14,0.31-0.27,0.71-0.03,0.96c-0.34,0.13-0.43,0.61-0.27,0.94
			c0.16,0.33,0.48,0.55,0.79,0.74c0.18,0.12,0.37,0.24,0.59,0.25c0.21,0.02,0.46-0.11,0.5-0.32c0.28,0.29,0.56,0.58,0.84,0.87H19.02
			c-5.48-5.71-8.86-13.47-8.86-22.02v-1.15c6.96-1.07,19.93-11.47,27.42-21.94c1.66-2.31,5.68-8.2,6.46-10.14
			C62.89,64.43,69.45,72.23,76.2,62.6c0.92-1.31,1.72-2.11,2.47-2.52l6.62,1.88c1.49,0.71,3.3,1.38,5.63,1.6h0.02l6.57,1.86
			l9.95,2.82c2.43,0.69,4.77,1.59,6.99,2.72l0.65,0.33c0.1,0.05,0.2,0.1,0.3,0.17c0.77,0.95,1.29,1.96,1.49,3.03
			C116.98,74.99,116.95,75.68,116.83,76.53z"/>
		<path class="st1" d="M143.32,5.95c0,0-1.91,7.25-7.46,12.47c-5.55,5.22-17.67,23.11-21.91,33.55c-0.08,0.2-0.16,0.39-0.24,0.58
			l-11.58-0.35l1.27-1.93c0.67-1.03,0.44-2.32-0.45-3.09c-0.14-0.13-0.33-0.27-0.53-0.36l-2.54-1.28c-0.78-0.39-1.66-0.35-2.37,0.01
			c-0.49,0.25-0.89,0.65-1.13,1.17l-1.03,2.28l-1.34,2.95l-5.99-0.18l-6.12-0.18H81.9c-1.04-3.41,0.43-6.78,0.71-18.86
			c0.32-14.03-9.14-28.39-9.14-28.39h64.3L143.32,5.95z"/>
		<path class="st20" d="M165.52,36.13v42.79c-0.21-0.28-0.5-0.52-0.84-0.69l-2.55-1.29c-1.32-0.67-2.92-0.11-3.52,1.18l-0.94,2.09
			l-7.5-9.76l3.03-4.66c0.5-0.76,0.5-1.66,0.1-2.4c-0.22-0.43-0.58-0.8-1.08-1.05l-2.54-1.28c-1.3-0.67-2.93-0.12-3.5,1.19
			l-0.86,1.87l-1.14-1.48c-1.61-2.1-1.65-4.93-0.09-7.08c2.98-4.12,5.76-8.36,7.7-13c2.02-4.76,3.05-10.08,2.29-15.15
			c-0.32-2.1-2.64-3.28-4.63-2.33c-4.76,2.26-8.74,6.1-11.7,10.4c-2.86,4.16-4.92,8.77-6.78,13.46c-0.96,2.43-3.41,4.02-6.11,3.93
			l-1.91-0.05l1.12-1.74c0.77-1.2,0.33-2.78-0.97-3.46l-0.95-0.47c1.3-2.34,2.8-4.5,4.18-6.29c3.27-4.24,22.52-29.7,22.52-29.7
			l2.61-1.3c2.98,2.13,5.35,4.4,7.25,6.62c0.02,0.03,0.03,0.05,0.06,0.07c0.01,0.01,0.01,0.02,0.01,0.02
			C163.01,21.96,165.52,28.75,165.52,36.13z"/>
		<polygon class="st20" points="162.49,86.5 165.52,81.88 165.52,90.44 		"/>
		<path class="st62" d="M165.52,104.29v21.77c0,0-15.16-11.77-24.92-9.77c-4.93,1.01-11.79,0.88-17.45-0.14
			c-0.01-0.02-0.02-0.04-0.03-0.06l-8.01-12.16c0.66-1.72,13.57-21.83,13.57-21.83c1.18-1.68,3.44-2.23,5.29-1.29l0.64,0.32
			c1.16,0.59,2.29,1.23,3.38,1.94c2.15,1.65,4.18,3.16,5.74,4.25l0.04,0.02l0.01,0.01L165.52,104.29z"/>
		<path class="st1" d="M164.9,134.73c-2.4,12.34-11.55,22.16-23.33,25.24h-32.29c0,0-0.22-1.34,0-4.69
			c0.23-3.35-0.88-11.4-3.17-18.11c-0.28-0.81-0.47-1.79-0.6-2.89v-0.01c-0.94-7.9,1.54-21.71,1.54-21.71s0.39,0.28,1.09,0.74
			c0.13,0.09,0.27,0.18,0.43,0.28c2.44,1.61,7.52,4.75,12.86,7c4,1.68,8.14,2.85,11.45,2.5c9.47-1,17.3,1.34,22.2,3.35
			C158.99,128.03,163.31,132.85,164.9,134.73z"/>
	</g>
	<g>
		<g>
			<g>
				<g>
					<path class="st20" d="M200.66,85.72l3.77-4.51c2.07,1.8,4.75,3.04,7.14,3.04c2.74,0,4.08-1.08,4.08-2.8
						c0-1.83-1.65-2.42-4.19-3.46l-3.78-1.61c-3.01-1.22-5.86-3.7-5.86-7.92c0-4.82,4.3-8.66,10.35-8.66c3.35,0,6.84,1.32,9.35,3.81
						l-3.32,4.14c-1.91-1.47-3.73-2.28-6.03-2.28c-2.26,0-3.71,0.94-3.71,2.6c0,1.78,1.9,2.43,4.44,3.44l3.7,1.5
						c3.55,1.43,5.76,3.8,5.76,7.9c0,4.83-4.02,9.01-10.95,9.01C207.64,89.92,203.62,88.49,200.66,85.72z"/>
					<path class="st20" d="M226.41,81.35v-8.93h-3.02v-4.89l3.39-0.25l0.77-5.87h5.42v5.87h5.3v5.14h-5.3v8.86
						c0,2.51,1.14,3.51,2.86,3.51c0.73,0,1.52-0.21,2.1-0.42l1.03,4.76c-1.18,0.37-2.77,0.8-4.92,0.8
						C228.59,89.92,226.41,86.47,226.41,81.35z"/>
					<path class="st20" d="M240.51,78.34c0-7.17,5.12-11.6,10.43-11.6c6.3,0,9.42,4.58,9.42,10.62c0,1.18-0.15,2.36-0.27,2.9h-13.23
						c0.59,3.21,2.78,4.68,5.74,4.68c1.67,0,3.18-0.51,4.78-1.45l2.17,3.95c-2.27,1.57-5.22,2.49-7.85,2.49
						C245.4,89.92,240.51,85.66,240.51,78.34z M254.77,75.91c0-2.43-1.06-4.18-3.67-4.18c-2.07,0-3.86,1.39-4.3,4.18H254.77z"/>
					<path class="st20" d="M264.89,67.27h5.35l0.47,2.18h0.16c1.74-1.55,3.99-2.71,6.3-2.71c5.35,0,8.63,4.43,8.63,11.24
						c0,7.59-4.52,11.94-9.3,11.94c-1.9,0-3.69-0.83-5.28-2.31l0.22,3.5v6.48h-6.55V67.27z M279.09,78.05
						c0-3.97-1.23-5.96-3.84-5.96c-1.35,0-2.51,0.6-3.8,1.98v9.08c1.19,1.04,2.42,1.4,3.53,1.4
						C277.26,84.56,279.09,82.63,279.09,78.05z"/>
					<path class="st20" d="M290.43,67.27h5.35l0.47,2.18h0.16c1.74-1.55,3.99-2.71,6.3-2.71c5.35,0,8.63,4.43,8.63,11.24
						c0,7.59-4.52,11.94-9.3,11.94c-1.9,0-3.69-0.83-5.28-2.31l0.22,3.5v6.48h-6.55V67.27z M304.63,78.05
						c0-3.97-1.23-5.96-3.84-5.96c-1.35,0-2.51,0.6-3.8,1.98v9.08c1.19,1.04,2.42,1.4,3.53,1.4
						C302.8,84.56,304.63,82.63,304.63,78.05z"/>
					<path class="st20" d="M315.46,60.61c0-2.01,1.6-3.43,3.79-3.43s3.79,1.42,3.79,3.43c0,1.99-1.59,3.43-3.79,3.43
						S315.46,62.6,315.46,60.61z M315.97,67.27h6.55v22.12h-6.55V67.27z"/>
					<path class="st20" d="M328.27,67.27h5.35l0.47,2.8h0.16c1.86-1.79,4.09-3.34,7.11-3.34c4.81,0,6.86,3.39,6.86,8.92v13.73h-6.55
						V76.5c0-3.18-0.85-4.18-2.75-4.18c-1.65,0-2.65,0.77-4.09,2.15v14.92h-6.55V67.27z"/>
					<path class="st20" d="M352.41,93.19c0-1.84,1.1-3.32,3.14-4.45v-0.18c-1.14-0.77-2.02-1.93-2.02-3.76
						c0-1.59,1.06-3.15,2.47-4.14v-0.18c-1.56-1.09-2.97-3.15-2.97-5.74c0-5.31,4.39-8,9.15-8c1.23,0,2.43,0.19,3.43,0.53h8.09v4.77
						h-3.55c0.41,0.66,0.75,1.76,0.75,2.91c0,5.09-3.87,7.43-8.71,7.43c-0.81,0-1.72-0.14-2.7-0.43c-0.54,0.47-0.77,0.87-0.77,1.65
						c0,1.09,0.89,1.62,3.31,1.62h3.59c5.42,0,8.44,1.66,8.44,5.62c0,4.59-4.79,7.94-12.38,7.94
						C356.52,98.79,352.41,97.12,352.41,93.19z M367.77,91.97c0-1.39-1.2-1.71-3.37-1.71h-2.3c-1.52,0-2.38-0.09-3.1-0.28
						c-0.82,0.69-1.19,1.37-1.19,2.17c0,1.68,1.94,2.54,4.9,2.54C365.66,94.68,367.77,93.5,367.77,91.97z M365.19,74.74
						c0-2.36-1.28-3.6-3.02-3.6s-3.02,1.23-3.02,3.6c0,2.42,1.3,3.69,3.02,3.69C363.9,78.43,365.19,77.16,365.19,74.74z"/>
				</g>
			</g>
			<g>
				<g>
					<path class="st1" d="M200.66,127.59l2.23-2.56c2.11,2.18,5.03,3.63,8.07,3.63c3.84,0,6.12-1.91,6.12-4.76
						c0-2.99-2.12-3.94-4.88-5.15l-4.2-1.85c-2.73-1.16-5.92-3.23-5.92-7.53c0-4.47,3.89-7.77,9.21-7.77c3.47,0,6.56,1.5,8.61,3.62
						l-1.97,2.39c-1.79-1.69-3.94-2.74-6.64-2.74c-3.28,0-5.45,1.65-5.45,4.27c0,2.82,2.55,3.87,4.84,4.84l4.17,1.8
						c3.39,1.45,6.03,3.47,6.03,7.82c0,4.62-3.82,8.31-9.97,8.31C206.79,131.93,203.22,130.25,200.66,127.59z"/>
					<path class="st1" d="M225.82,124.69v-11.98h-3.22v-2.78l3.39-0.21l0.44-6.08h3.06v6.08h5.87v2.99h-5.87v12.05
						c0,2.65,0.85,4.18,3.35,4.18c0.77,0,1.76-0.29,2.47-0.58l0.71,2.77c-1.22,0.41-2.67,0.8-4.02,0.8
						C227.38,131.93,225.82,129.01,225.82,124.69z"/>
					<path class="st1" d="M238.01,120.59c0-7.23,4.73-11.4,10.04-11.4s10.04,4.17,10.04,11.4c0,7.17-4.73,11.34-10.04,11.34
						S238.01,127.76,238.01,120.59z M254.3,120.59c0-4.97-2.53-8.35-6.25-8.35c-3.73,0-6.25,3.38-6.25,8.35
						c0,4.97,2.53,8.29,6.25,8.29C251.78,128.88,254.3,125.55,254.3,120.59z"/>
					<path class="st1" d="M263.78,109.72h3.03l0.31,3.13h0.12c2.07-2.03,4.29-3.66,7.27-3.66c4.57,0,6.62,2.95,6.62,8.47v13.73
						h-3.67v-13.26c0-4.04-1.22-5.76-4.09-5.76c-2.22,0-3.75,1.13-5.92,3.33v15.69h-3.67V109.72z"/>
					<path class="st1" d="M286.55,120.59c0-7.05,4.75-11.4,9.74-11.4c5.53,0,8.65,3.97,8.65,10.17c0,0.77-0.07,1.55-0.17,2.08
						h-14.59c0.26,4.59,3.07,7.57,7.2,7.57c2.08,0,3.79-0.67,5.39-1.73l1.31,2.41c-1.9,1.24-4.21,2.25-7.16,2.25
						C291.15,131.93,286.55,127.71,286.55,120.59z M301.7,118.81c0-4.34-1.95-6.7-5.34-6.7c-3.05,0-5.77,2.45-6.22,6.7H301.7z"/>
				</g>
			</g>
		</g>
		<rect x="322.01" y="117.92" class="st20" width="52.04" height="3.35"/>
	</g>
</g>
</svg>
